<?xml version="1.0" encoding="utf-8"?>
<!-- Generator: Adobe Illustrator 24.2.3, SVG Export Plug-In . SVG Version: 6.00 Build 0)  -->
<svg version="1.1" id="Layer_2_1_" xmlns="http://www.w3.org/2000/svg" xmlns:xlink="http://www.w3.org/1999/xlink" x="0px" y="0px"
	 viewBox="0 0 285 285" style="enable-background:new 0 0 285 285;" xml:space="preserve">
<style type="text/css">
	.st0{fill-rule:evenodd;clip-rule:evenodd;fill:#FA033D;}
	.st1{fill:#FCFAFA;}
	.st2{clip-path:url(#SVGID_2_);}
	.st3{fill:#020202;}
	.st4{fill:#FA033D;}
	.st5{fill:none;stroke:#FCFAFA;stroke-miterlimit:10;}
	.st6{fill:none;stroke:#FCFAFA;stroke-miterlimit:10.03;}
	.st7{fill:none;stroke:#FCFAFA;stroke-width:0.99;stroke-miterlimit:9.94;}
	.st8{fill:none;stroke:#FCFAFA;stroke-miterlimit:9.99;}
	.st9{fill:none;stroke:#FCFAFA;stroke-miterlimit:10.04;}
	.st10{fill:none;stroke:#FCFAFA;stroke-miterlimit:9.98;}
	.st11{fill:none;stroke:#FCFAFA;stroke-miterlimit:9.96;}
</style>
<g id="Background">
	<circle class="st0" cx="142.5" cy="142.5" r="136"/>
	<path class="st1" d="M142.5,8.5c74,0,134,60,134,134s-60,134-134,134s-134-60-134-134S68.5,8.5,142.5,8.5 M142.5,4.5
		c-36.9,0-71.5,14.4-97.6,40.4C18.9,71,4.5,105.6,4.5,142.5s14.4,71.5,40.4,97.6c26.1,26.1,60.7,40.4,97.6,40.4s71.5-14.4,97.6-40.4
		c26.1-26.1,40.4-60.7,40.4-97.6S266.1,71,240.1,44.9C214,18.9,179.4,4.5,142.5,4.5L142.5,4.5z"/>
</g>
<g id="Buildings">
	<circle class="st1" cx="142.5" cy="142.5" r="89.5"/>
	<g>
		<defs>
			<circle id="SVGID_1_" cx="142.5" cy="142.5" r="89.5"/>
		</defs>
		<clipPath id="SVGID_2_">
			<use xlink:href="#SVGID_1_"  style="overflow:visible;"/>
		</clipPath>
		<g class="st2">
			<path class="st3" d="M173.7,233.5v-0.4l-66.2,0.4v-0.4l-62,0.4V130.6l20.2-0.4v-2.8c0.5-1.4,1.3-2.7,2.4-3.7
				c1-0.9,2.3-1.3,3.7-1.3c0.2,0,0.5,0,0.7,0h27c0,0,2.7,0,4,1.7c0.8,1,1.5,2.1,2,3.3v2.9h2v-17.5H138v-6.9l19.6-5.2l18.8,4.8v21.5
				h1.8l9-7.1l19.6,0.4l9.4,6.7h22.2v106.3L173.7,233.5L173.7,233.5z"/>
		</g>
	</g>
</g>
<path id="Stars" class="st4" d="M86.5,152.5l2.9,10.9l10.9-2.9l-8,8l8,8l-10.9-2.9l-2.9,10.9l-2.9-10.9l-10.9,2.9l8-8l-8-8l10.9,2.9
	L86.5,152.5z M123.8,152.5l2.9,10.9l10.9-2.9l-8,8l8,8l-10.9-2.9l-2.9,10.9l-2.9-10.9l-10.9,2.9l8-8l-8-8l10.9,2.9L123.8,152.5z
	 M161.2,152.5l2.9,10.9l10.9-2.9l-8,8l8,8l-10.9-2.9l-2.9,10.9l-2.9-10.9l-10.9,2.9l8-8l-8-8l10.9,2.9L161.2,152.5z M198.5,152.5
	l2.9,10.9l10.9-2.9l-8,8l8,8l-10.9-2.9l-2.9,10.9l-2.9-10.9l-10.9,2.9l8-8l-8-8l10.9,2.9L198.5,152.5z"/>
<g>
	<path class="st1" d="M64.9,78.5l-15.4-7.3l-0.1,0.1c2.2,1.7,4,3,5.1,4.1l7.5,6.5L58.4,86L41.2,71l5.4-6.2l15.3,7.1l0.1-0.1
		l-9.1-14.3l5.4-6.2l17.2,15.1l-3.7,4.3l-7.5-6.6c-0.4-0.3-0.8-0.7-1.3-1.2s-1.6-1.5-3.4-3.2l-0.1,0.1l9.3,14.3L64.9,78.5z"/>
</g>
<g id="Spanish">
	<path class="st5" d="M64.9,78.5l-15.4-7.3l-0.1,0.1c2.2,1.7,4,3,5.1,4.1l7.5,6.5L58.4,86L41.2,71l5.4-6.2l15.3,7.1l0.1-0.1
		l-9.1-14.3l5.4-6.2l17.2,15.1l-3.7,4.3l-7.5-6.6c-0.4-0.3-0.8-0.7-1.3-1.2s-1.6-1.5-3.4-3.2l-0.1,0.1l9.3,14.3L64.9,78.5z"/>
</g>
<g>
	<path class="st1" d="M90.2,42.8c2.1,3.2,2.9,6.2,2.5,8.9c-0.5,2.7-2.2,5.1-5.3,7.1c-3,2-5.8,2.7-8.6,2s-5.1-2.5-7.2-5.8
		s-2.9-6.1-2.4-8.8s2.2-5.1,5.3-7.1s5.9-2.7,8.6-2S88.1,39.6,90.2,42.8z M77.1,51.5c2.4,3.7,4.9,4.7,7.5,3c1.2-0.7,1.9-1.9,2-3.2
		c-0.1-1.8-0.7-3.4-1.8-4.8c-0.9-1.5-2.2-2.8-3.7-3.6c-1.3-0.5-2.7-0.3-3.8,0.5C74.7,45.1,74.7,47.8,77.1,51.5z"/>
</g>
<g>
	<path class="st5" d="M90.2,42.8c2.1,3.2,2.9,6.2,2.5,8.9c-0.5,2.7-2.2,5.1-5.3,7.1c-3,2-5.8,2.7-8.6,2s-5.1-2.5-7.2-5.8
		s-2.9-6.1-2.4-8.8s2.2-5.1,5.3-7.1s5.9-2.7,8.6-2S88.1,39.6,90.2,42.8z M77.1,51.5c2.4,3.7,4.9,4.7,7.5,3c1.2-0.7,1.9-1.9,2-3.2
		c-0.1-1.8-0.7-3.4-1.8-4.8c-0.9-1.5-2.2-2.8-3.7-3.6c-1.3-0.5-2.7-0.3-3.8,0.5C74.7,45.1,74.7,47.8,77.1,51.5z"/>
</g>
<g>
	<path class="st1" d="M103.2,25.4l6.5-2.4l1,24.1l-6.8,2.5l-15-18.9l6.5-2.4l7,9.8c1.1,1.5,2,3,2.9,4.7c-0.2-0.7-0.4-1.6-0.5-2.7
		s-0.3-2-0.4-2.6L103.2,25.4z"/>
</g>
<g>
	<path class="st6" d="M103.2,25.4l6.5-2.4l1,24.1l-6.8,2.5l-15-18.9l6.5-2.4l7,9.8c1.1,1.5,2,3,2.9,4.7c-0.2-0.7-0.4-1.6-0.5-2.7
		s-0.3-2-0.4-2.6L103.2,25.4z"/>
</g>
<g>
	<path class="st1" d="M118.5,44.8l-4.8-22.3l6.1-1.3l4.8,22.3L118.5,44.8z"/>
</g>
<g>
	<path class="st5" d="M118.5,44.8l-4.8-22.3l6.1-1.3l4.8,22.3L118.5,44.8z"/>
</g>
<g>
	<path class="st1" d="M137.7,42.1l-5-16.4h-0.1c0.3,2.8,0.4,5,0.4,6.5l0.2,9.9l-5.5,0.1l-0.4-22.8l8.2-0.1l5,16.1h0.1l4.4-16.3
		l8.2-0.1l0.4,22.8l-5.7,0.1l-0.2-10c0-0.5,0-1.1,0-1.7s0.1-2.2,0.1-4.7h-0.1L143.6,42L137.7,42.1z"/>
</g>
<g>
	<path class="st5" d="M137.7,42.1l-5-16.4h-0.1c0.3,2.8,0.4,5,0.4,6.5l0.2,9.9l-5.5,0.1l-0.4-22.8l8.2-0.1l5,16.1h0.1l4.4-16.3
		l8.2-0.1l0.4,22.8l-5.7,0.1l-0.2-10c0-0.5,0-1.1,0-1.7s0.1-2.2,0.1-4.7h-0.1L143.6,42L137.7,42.1z"/>
</g>
<g>
	<path class="st1" d="M157.1,43l4-22.5l6.1,1.1l-4,22.5L157.1,43z"/>
</g>
<g>
	<path class="st5" d="M157.1,43l4-22.5l6.1,1.1l-4,22.5L157.1,43z"/>
</g>
<g>
	<path class="st1" d="M179.1,48.6l-13-4l6.7-21.8l13,4l-1.5,4.7l-7.1-2.2l-1.1,3.4l6.5,2l-1.5,4.7l-6.5-2l-1.3,4.1l7.1,2.2
		L179.1,48.6z"/>
</g>
<g>
	<path class="st5" d="M179.1,48.6l-13-4l6.7-21.8l13,4l-1.5,4.7l-7.1-2.2l-1.1,3.4l6.5,2l-1.5,4.7l-6.5-2l-1.3,4.1l7.1,2.2
		L179.1,48.6z"/>
</g>
<g>
	<path class="st1" d="M200.5,59.7l-7-3.9l0.5-18l-0.1-0.1c-1,2.3-1.9,4-2.5,5.2l-4.9,9l-4.8-2.6l11-19.9l7,3.9l-0.4,17.8l0.1,0
		c1-2.1,1.8-3.7,2.5-4.9l5-9l4.8,2.6L200.5,59.7z"/>
</g>
<g>
	<path class="st7" d="M200.5,59.7l-7-3.9l0.5-18l-0.1-0.1c-1,2.3-1.9,4-2.5,5.2l-4.9,9l-4.8-2.6l11-19.9l7,3.9l-0.4,17.8l0.1,0
		c1-2.1,1.8-3.7,2.5-4.9l5-9l4.8,2.6L200.5,59.7z"/>
</g>
<g>
	<path class="st1" d="M210.9,68.8l-4.6-4.1L218,51.4l-4.2-3.7l3.3-3.8l13,11.4l-3.3,3.8l-4.2-3.7L210.9,68.8z"/>
</g>
<g>
	<path class="st8" d="M210.9,68.8l-4.6-4.1L218,51.4l-4.2-3.7l3.3-3.8l13,11.4l-3.3,3.8l-4.2-3.7L210.9,68.8z"/>
</g>
<g>
	<path class="st1" d="M238.4,83.9c-3.1,2.3-6,3.3-8.7,3c-2.7-0.3-5.2-1.9-7.4-4.8c-2.1-2.9-3-5.7-2.5-8.4s2.2-5.3,5.3-7.6
		c3-2.3,5.9-3.3,8.7-3s5.2,1.9,7.4,4.9c2.2,2.9,3,5.7,2.6,8.4C243.3,79.1,241.5,81.6,238.4,83.9z M229,71.3
		c-3.5,2.7-4.4,5.2-2.5,7.7c0.7,1.1,2,1.8,3.4,1.8c1.7-0.2,3.4-1,4.7-2.1c1.5-1,2.7-2.4,3.4-4c0.4-1.3,0.1-2.7-0.8-3.7
		C235.3,68.6,232.6,68.7,229,71.3z"/>
</g>
<g>
	<path class="st5" d="M238.4,83.9c-3.1,2.3-6,3.3-8.7,3c-2.7-0.3-5.2-1.9-7.4-4.8c-2.1-2.9-3-5.7-2.5-8.4s2.2-5.3,5.3-7.6
		c3-2.3,5.9-3.3,8.7-3s5.2,1.9,7.4,4.9c2.2,2.9,3,5.7,2.6,8.4C243.3,79.1,241.5,81.6,238.4,83.9z M229,71.3
		c-3.5,2.7-4.4,5.2-2.5,7.7c0.7,1.1,2,1.8,3.4,1.8c1.7-0.2,3.4-1,4.7-2.1c1.5-1,2.7-2.4,3.4-4c0.4-1.3,0.1-2.7-0.8-3.7
		C235.3,68.6,232.6,68.7,229,71.3z"/>
</g>
<g>
	<path class="st1" d="M251.4,112.6c-3.6,1.3-6.7,1.4-9.4,0.1c-2.7-1.2-4.7-3.6-6-7.2l-2.6-6.9l21.4-8l2.8,7.4
		c1.3,3.4,1.4,6.4,0.3,8.9C256.8,109.5,254.7,111.4,251.4,112.6z M248.9,106.7c1.6-0.5,3-1.4,3.9-2.8c0.7-1.3,0.7-2.8,0.1-4.1
		l-0.6-1.7l-12,4.5l0.5,1.3c0.4,1.5,1.5,2.7,3,3.3C245.5,107.6,247.3,107.4,248.9,106.7L248.9,106.7z"/>
</g>
<g>
	<path class="st5" d="M251.4,112.6c-3.6,1.3-6.7,1.4-9.4,0.1c-2.7-1.2-4.7-3.6-6-7.2l-2.6-6.9l21.4-8l2.8,7.4
		c1.3,3.4,1.4,6.4,0.3,8.9C256.8,109.5,254.7,111.4,251.4,112.6z M248.9,106.7c1.6-0.5,3-1.4,3.9-2.8c0.7-1.3,0.7-2.8,0.1-4.1
		l-0.6-1.7l-12,4.5l0.5,1.3c0.4,1.5,1.5,2.7,3,3.3C245.5,107.6,247.3,107.4,248.9,106.7L248.9,106.7z"/>
</g>
<g>
	<path class="st1" d="M242.8,132.8l-2.3-13.4l22.6-3.9l2.3,13.4l-4.9,0.8l-1.3-7.3l-3.6,0.6l1.2,6.8l-4.9,0.8l-1.2-6.8l-4.3,0.7
		l1.3,7.3L242.8,132.8z"/>
</g>
<g>
	<path class="st9" d="M242.8,132.8l-2.3-13.4l22.6-3.9l2.3,13.4l-4.9,0.8l-1.3-7.3l-3.6,0.6l1.2,6.8l-4.9,0.8l-1.2-6.8l-4.3,0.7
		l1.3,7.3L242.8,132.8z"/>
</g>
<g>
	<path class="st1" d="M243,140.7l22.9,0.5l-0.1,6.2l-22.8-0.5L243,140.7z"/>
</g>
<g>
	<path class="st5" d="M243,140.7l22.9,0.5l-0.1,6.2l-22.8-0.5L243,140.7z"/>
</g>
<g>
	<path class="st1" d="M239.3,171.6l1.5-8l17.3-5.3v-0.1c-2.5-0.3-4.4-0.5-5.8-0.8l-10.1-1.9l1-5.4l22.5,4.2l-1.5,7.9l-17.1,5.3v0.1
		c2.3,0.3,4.1,0.5,5.5,0.8l10.2,1.9l-1,5.4L239.3,171.6z"/>
</g>
<g>
	<path class="st5" d="M239.3,171.6l1.5-8l17.3-5.3v-0.1c-2.5-0.3-4.4-0.5-5.8-0.8l-10.1-1.9l1-5.4l22.5,4.2l-1.5,7.9l-17.1,5.3v0.1
		c2.3,0.3,4.1,0.5,5.5,0.8l10.2,1.9l-1,5.4L239.3,171.6z"/>
</g>
<g>
	<path class="st1" d="M239.6,199.4c-4.7-2.2-7.1-5.1-7.4-8.9l-8.1,2.4l3.2-7l6.3-1.5h0.1c1.5-3.2,3.6-5.3,6.2-6.2
		c2.6-0.9,5.7-0.5,9.2,1.1c3.4,1.6,5.7,3.7,6.7,6.2s0.8,5.5-0.7,8.8s-3.6,5.4-6.2,6.2S243.1,201,239.6,199.4z M246.2,185.1
		c-4-1.8-6.7-1.4-8,1.4c-0.7,1.2-0.7,2.6,0,3.8c2.3,2.7,5.6,4.3,9.1,4.2c1.3-0.3,2.4-1.2,2.9-2.4C251.5,189.3,250.2,187,246.2,185.1
		L246.2,185.1z"/>
</g>
<g>
	<path class="st5" d="M239.6,199.4c-4.7-2.2-7.1-5.1-7.4-8.9l-8.1,2.4l3.2-7l6.3-1.5h0.1c1.5-3.2,3.6-5.3,6.2-6.2
		c2.6-0.9,5.7-0.5,9.2,1.1c3.4,1.6,5.7,3.7,6.7,6.2s0.8,5.5-0.7,8.8s-3.6,5.4-6.2,6.2S243.1,201,239.6,199.4z M246.2,185.1
		c-4-1.8-6.7-1.4-8,1.4c-0.7,1.2-0.7,2.6,0,3.8c2.3,2.7,5.6,4.3,9.1,4.2c1.3-0.3,2.4-1.2,2.9-2.4C251.5,189.3,250.2,187,246.2,185.1
		L246.2,185.1z"/>
</g>
<g>
	<path class="st1" d="M233.5,226.4l-10.8-8.5c-2.1-1.5-3.5-3.7-3.9-6.3c-0.2-2.3,0.6-4.8,2.6-7.3s4-3.8,6.3-4.2s4.6,0.4,6.9,2.3
		l10.9,8.6l-3.8,4.9l-10.5-8.3c-0.9-0.8-2.1-1.4-3.3-1.5c-2.1,0.3-3.6,2.2-3.4,4.2c0.4,1.2,1.2,2.2,2.3,2.9l10.5,8.3L233.5,226.4z"
		/>
</g>
<g>
	<path class="st5" d="M233.5,226.4l-10.8-8.5c-2.1-1.5-3.5-3.7-3.9-6.3c-0.2-2.3,0.6-4.8,2.6-7.3s4-3.8,6.3-4.2s4.6,0.4,6.9,2.3
		l10.9,8.6l-3.8,4.9l-10.5-8.3c-0.9-0.8-2.1-1.4-3.3-1.5c-2.1,0.3-3.6,2.2-3.4,4.2c0.4,1.2,1.2,2.2,2.3,2.9l10.5,8.3L233.5,226.4z"
		/>
</g>
<g>
	<path class="st1" d="M213.1,214.1l15.5,16.7l-4.5,4.2l-15.5-16.7L213.1,214.1z"/>
</g>
<g>
	<path class="st10" d="M213.1,214.1l15.5,16.7l-4.5,4.2l-15.5-16.7L213.1,214.1z"/>
</g>
<g>
	<path class="st1" d="M206.3,220.4l13.2,18.5l-5,3.6L204.2,228l-7.1,5.1l-2.9-4L206.3,220.4z"/>
</g>
<g>
	<path class="st11" d="M206.3,220.4l13.2,18.5l-5,3.6L204.2,228l-7.1,5.1l-2.9-4L206.3,220.4z"/>
</g>
<g>
	<path class="st1" d="M192.5,229.8l10.8,20.2l-5.5,2.9L187,232.7L192.5,229.8z"/>
</g>
<g>
	<path class="st5" d="M192.5,229.8l10.8,20.2l-5.5,2.9L187,232.7L192.5,229.8z"/>
</g>
<g>
	<path class="st1" d="M163.6,241.4l7.7-2.5l13,12.7h0.1c-1-2.4-1.7-4.1-2.1-5.4l-3.2-9.8l5.2-1.7l7.1,21.7l-7.7,2.5l-12.9-12.5h-0.1
		c0.9,2.1,1.5,3.9,1.9,5.2l3.2,9.8l-5.2,1.7L163.6,241.4z"/>
</g>
<g>
	<path class="st5" d="M163.6,241.4l7.7-2.5l13,12.7h0.1c-1-2.4-1.7-4.1-2.1-5.4l-3.2-9.8l5.2-1.7l7.1,21.7l-7.7,2.5l-12.9-12.5h-0.1
		c0.9,2.1,1.5,3.9,1.9,5.2l3.2,9.8l-5.2,1.7L163.6,241.4z"/>
</g>
<g>
	<path class="st1" d="M139.5,243.6l7.1-0.6l5,6.8l3.8-7.5l7-0.6l-6.6,12.3l8,10.5l-6.8,0.6l-4.7-6.7l-3.4,7.4l-7,0.6l6.2-12.2
		L139.5,243.6z"/>
</g>
<g>
	<path class="st5" d="M139.5,243.6l7.1-0.6l5,6.8l3.8-7.5l7-0.6l-6.6,12.3l8,10.5l-6.8,0.6l-4.7-6.7l-3.4,7.4l-7,0.6l6.2-12.2
		L139.5,243.6z"/>
</g>
<g>
	<path class="st1" d="M122.9,248.4c0.1-1.3,0.6-2.6,1.5-3.6c0.9-1,2.1-1.8,3.4-2.2c1.6-0.5,3.2-0.6,4.8-0.4c1.3,0.1,2.5,0.4,3.8,0.7
		c1.1,0.4,2.1,0.8,3.1,1.5l-0.6,5.4c-1.1-0.7-2.3-1.3-3.5-1.8c-1.1-0.4-2.2-0.7-3.4-0.9c-0.7-0.1-1.4,0-2,0.2
		c-0.4,0.2-0.7,0.7-0.8,1.1c0,0.3,0,0.6,0.2,0.8c0.2,0.3,0.4,0.6,0.7,0.8c0.9,0.6,1.9,1.2,2.9,1.8c1.1,0.6,2.2,1.4,3.1,2.3
		c0.6,0.7,1.1,1.5,1.4,2.3c0.3,1,0.3,2,0.2,3c-0.1,1.9-1.2,3.6-2.8,4.6c-2,1.1-4.2,1.4-6.4,1c-2.5-0.3-4.9-1.1-7-2.4l2.4-4.5
		c1.6,1.1,3.4,1.8,5.3,2.1c0.6,0.1,1.2,0,1.8-0.2c0.4-0.2,0.6-0.6,0.6-1c0-0.5-0.2-1-0.6-1.3c-1.1-0.9-2.3-1.6-3.5-2.3
		c-1.5-0.8-2.8-1.9-3.8-3.3C123,251.1,122.7,249.7,122.9,248.4z"/>
</g>
<g>
	<path class="st11" d="M122.9,248.4c0.1-1.3,0.6-2.6,1.5-3.6c0.9-1,2.1-1.8,3.4-2.2c1.6-0.5,3.2-0.6,4.8-0.4
		c1.3,0.1,2.5,0.4,3.8,0.7c1.1,0.4,2.1,0.8,3.1,1.5l-0.6,5.4c-1.1-0.7-2.3-1.3-3.5-1.8c-1.1-0.4-2.2-0.7-3.4-0.9
		c-0.7-0.1-1.4,0-2,0.2c-0.4,0.2-0.7,0.7-0.8,1.1c0,0.3,0,0.6,0.2,0.8c0.2,0.3,0.4,0.6,0.7,0.8c0.9,0.6,1.9,1.2,2.9,1.8
		c1.1,0.6,2.2,1.4,3.1,2.3c0.6,0.7,1.1,1.5,1.4,2.3c0.3,1,0.3,2,0.2,3c-0.1,1.9-1.2,3.6-2.8,4.6c-2,1.1-4.2,1.4-6.4,1
		c-2.5-0.3-4.9-1.1-7-2.4l2.4-4.5c1.6,1.1,3.4,1.8,5.3,2.1c0.6,0.1,1.2,0,1.8-0.2c0.4-0.2,0.6-0.6,0.6-1c0-0.5-0.2-1-0.6-1.3
		c-1.1-0.9-2.3-1.6-3.5-2.3c-1.5-0.8-2.8-1.9-3.8-3.3C123,251.1,122.7,249.7,122.9,248.4z"/>
</g>
<g>
	<path class="st1" d="M93.4,244.1c1.3-3.6,3.4-5.9,6.1-7.1c2.7-1.2,5.8-1.1,9.4,0.2l6.9,2.6l-8.1,21.4l-7.4-2.8
		c-3.4-1.3-5.8-3.2-7-5.6C92,250.3,92.1,247.5,93.4,244.1z M99.4,246.2c-0.7,1.5-0.9,3.2-0.4,4.8c0.5,1.3,1.6,2.4,3,2.8l1.7,0.6
		l4.5-12l-1.3-0.5c-1.4-0.7-3-0.6-4.4,0.1C101,243,100,244.5,99.4,246.2z"/>
</g>
<g>
	<path class="st5" d="M93.4,244.1c1.3-3.6,3.4-5.9,6.1-7.1c2.7-1.2,5.8-1.1,9.4,0.2l6.9,2.6l-8.1,21.4l-7.4-2.8
		c-3.4-1.3-5.8-3.2-7-5.6C92,250.3,92.1,247.5,93.4,244.1z M99.4,246.2c-0.7,1.5-0.9,3.2-0.4,4.8c0.5,1.3,1.6,2.4,3,2.8l1.7,0.6
		l4.5-12l-1.3-0.5c-1.4-0.7-3-0.6-4.4,0.1C101,243,100,244.5,99.4,246.2z"/>
</g>
<g>
	<path class="st1" d="M83.9,224.5l11.6,7.1L83.6,251L72,244l2.6-4.2l6.3,3.9l1.9-3.1l-5.9-3.6l2.6-4.2l5.8,3.6l2.2-3.7l-6.3-3.9
		L83.9,224.5z"/>
</g>
<g>
	<path class="st5" d="M83.9,224.5l11.6,7.1L83.6,251L72,244l2.6-4.2l6.3,3.9l1.9-3.1l-5.9-3.6l2.6-4.2l5.8,3.6l2.2-3.7l-6.3-3.9
		L83.9,224.5z"/>
</g>
<g>
	<path class="st1" d="M57.3,225.1c0.9,1,2.3,1.4,3.7,1.1c1.7-0.4,3.2-1.4,4.4-2.7c3.1-3.1,3.5-5.9,1.1-8.2c-0.7-0.7-1.5-1.3-2.4-1.8
		c-0.9-0.5-1.8-0.9-2.7-1.3l3.7-3.7c2.1,0.8,3.9,2.1,5.5,3.7c2.4,2.4,3.6,5,3.5,7.7c-0.1,2.7-1.5,5.4-4.1,8.1
		c-1.5,1.6-3.3,2.7-5.3,3.5c-1.8,0.6-3.8,0.7-5.6,0.2c-2-0.6-3.8-1.6-5.2-3.1c-1.7-1.7-3.1-3.8-3.9-6.1l4.8-2.1
		c0.3,0.9,0.7,1.7,1.1,2.5C56.1,223.7,56.6,224.4,57.3,225.1z"/>
</g>
<g>
	<path class="st5" d="M57.3,225.1c0.9,1,2.3,1.4,3.7,1.1c1.7-0.4,3.2-1.4,4.4-2.7c3.1-3.1,3.5-5.9,1.1-8.2c-0.7-0.7-1.5-1.3-2.4-1.8
		c-0.9-0.5-1.8-0.9-2.7-1.3l3.7-3.7c2.1,0.8,3.9,2.1,5.5,3.7c2.4,2.4,3.6,5,3.5,7.7c-0.1,2.7-1.5,5.4-4.1,8.1
		c-1.5,1.6-3.3,2.7-5.3,3.5c-1.8,0.6-3.8,0.7-5.6,0.2c-2-0.6-3.8-1.6-5.2-3.1c-1.7-1.7-3.1-3.8-3.9-6.1l4.8-2.1
		c0.3,0.9,0.7,1.7,1.1,2.5C56.1,223.7,56.6,224.4,57.3,225.1z"/>
</g>
<g>
	<path class="st1" d="M52.9,189.2l3.4,5.2l-7.8,5.1l4,6l7.8-5.1l3.4,5.2l-19.2,12.6l-3.4-5.2l7.1-4.7l-4-6l-7.1,4.7l-3.4-5.2
		L52.9,189.2z"/>
</g>
<g>
	<path class="st9" d="M52.9,189.2l3.4,5.2l-7.8,5.1l4,6l7.8-5.1l3.4,5.2l-19.2,12.6l-3.4-5.2l7.1-4.7l-4-6l-7.1,4.7l-3.4-5.2
		L52.9,189.2z"/>
</g>
<g>
	<path class="st1" d="M51.9,186.1L31,195.4l-2.5-5.7l20.9-9.3L51.9,186.1z"/>
</g>
<g>
	<path class="st5" d="M51.9,186.1L31,195.4l-2.5-5.7l20.9-9.3L51.9,186.1z"/>
</g>
<g>
	<path class="st1" d="M27.8,172.9c0.3,1.3,1.4,2.4,2.7,2.8c1.7,0.5,3.5,0.4,5.1-0.2c4.2-1.2,5.9-3.4,5-6.6c-0.3-1-0.7-1.9-1.2-2.7
		c-0.5-0.9-1.1-1.7-1.8-2.5l5-1.4c1.4,1.7,2.4,3.7,3,5.9c0.9,3.3,0.7,6.1-0.7,8.4c-1.4,2.3-3.9,4-7.6,5c-2,0.6-4.2,0.8-6.3,0.4
		c-1.9-0.3-3.6-1.2-5-2.6c-1.4-1.5-2.5-3.3-3-5.3c-0.7-2.4-0.8-4.8-0.4-7.2l5.2,0.5c-0.1,0.9-0.2,1.8-0.3,2.7
		C27.5,171,27.6,172,27.8,172.9z"/>
</g>
<g>
	<path class="st5" d="M27.8,172.9c0.3,1.3,1.4,2.4,2.7,2.8c1.7,0.5,3.5,0.4,5.1-0.2c4.2-1.2,5.9-3.4,5-6.6c-0.3-1-0.7-1.9-1.2-2.7
		c-0.5-0.9-1.1-1.7-1.8-2.5l5-1.4c1.4,1.7,2.4,3.7,3,5.9c0.9,3.3,0.7,6.1-0.7,8.4c-1.4,2.3-3.9,4-7.6,5c-2,0.6-4.2,0.8-6.3,0.4
		c-1.9-0.3-3.6-1.2-5-2.6c-1.4-1.5-2.5-3.3-3-5.3c-0.7-2.4-0.8-4.8-0.4-7.2l5.2,0.5c-0.1,0.9-0.2,1.8-0.3,2.7
		C27.5,171,27.6,172,27.8,172.9z"/>
</g>
<g>
	<path class="st1" d="M41.9,145.1l-4.2,1.4l0.5,7.4l4.3,0.8l0.5,6.8l-23.4-5.8l-0.6-8.2l22.3-9.2L41.9,145.1z M32.8,148.2l-3.7,1.3
		c-0.8,0.3-1.9,0.6-3.2,1.1s-2.2,0.7-2.8,0.9c0.5,0.1,1.4,0.2,2.7,0.4s3.7,0.6,7.3,1.3L32.8,148.2z"/>
</g>
<g>
	<path class="st5" d="M41.9,145.1l-4.2,1.4l0.5,7.4l4.3,0.8l0.5,6.8l-23.4-5.8l-0.6-8.2l22.3-9.2L41.9,145.1z M32.8,148.2l-3.7,1.3
		c-0.8,0.3-1.9,0.6-3.2,1.1s-2.2,0.7-2.8,0.9c0.5,0.1,1.4,0.2,2.7,0.4s3.7,0.6,7.3,1.3L32.8,148.2z"/>
</g>
<g>
	<path class="st1" d="M29.8,126.3l1.4-9.8l12.2,1.8c0.5,3,0.6,6,0.1,8.9c-0.5,3.5-1.9,6-4.2,7.6s-5.3,2.1-9,1.6s-6.3-2-8.1-4.4
		s-2.3-5.4-1.8-9.2c0.2-1.4,0.5-2.7,1-4c0.4-1.1,0.9-2.2,1.5-3.2l4.5,2.6c-1.1,1.5-1.7,3.3-2,5.2c-0.3,1.6,0.1,3.2,1.1,4.4
		c1.3,1.3,3,2,4.8,2.2c1.7,0.4,3.4,0.1,5-0.6c1.3-0.8,2.1-2.1,2.2-3.6c0.1-0.8,0.2-1.7,0.1-2.6l-3.5-0.5l-0.6,4L29.8,126.3z"/>
</g>
<g>
	<path class="st5" d="M29.8,126.3l1.4-9.8l12.2,1.8c0.5,3,0.6,6,0.1,8.9c-0.5,3.5-1.9,6-4.2,7.6s-5.3,2.1-9,1.6s-6.3-2-8.1-4.4
		s-2.3-5.4-1.8-9.2c0.2-1.4,0.5-2.7,1-4c0.4-1.1,0.9-2.2,1.5-3.2l4.5,2.6c-1.1,1.5-1.7,3.3-2,5.2c-0.3,1.6,0.1,3.2,1.1,4.4
		c1.3,1.3,3,2,4.8,2.2c1.7,0.4,3.4,0.1,5-0.6c1.3-0.8,2.1-2.1,2.2-3.6c0.1-0.8,0.2-1.7,0.1-2.6l-3.5-0.5l-0.6,4L29.8,126.3z"/>
</g>
<g>
	<path class="st1" d="M42.4,91.1c3.6,1.4,6,3.4,7.1,5.8s1.1,5.4-0.2,8.8s-3.3,5.5-5.8,6.6s-5.7,0.8-9.2-0.6s-5.9-3.3-7.1-5.9
		s-1.1-5.4,0.2-8.8s3.3-5.6,5.8-6.6S38.8,89.6,42.4,91.1z M36.7,105.7c4.1,1.6,6.7,1,7.9-1.8c0.6-1.2,0.5-2.7-0.2-3.8
		c-1.1-1.4-2.6-2.4-4.3-2.9c-1.6-0.8-3.4-1-5.1-0.8c-1.3,0.3-2.4,1.3-2.8,2.6C31,101.8,32.5,104,36.7,105.7z"/>
</g>
<g>
	<path class="st5" d="M42.4,91.1c3.6,1.4,6,3.4,7.1,5.8s1.1,5.4-0.2,8.8s-3.3,5.5-5.8,6.6s-5.7,0.8-9.2-0.6s-5.9-3.3-7.1-5.9
		s-1.1-5.4,0.2-8.8s3.3-5.6,5.8-6.6S38.8,89.6,42.4,91.1z M36.7,105.7c4.1,1.6,6.7,1,7.9-1.8c0.6-1.2,0.5-2.7-0.2-3.8
		c-1.1-1.4-2.6-2.4-4.3-2.9c-1.6-0.8-3.4-1-5.1-0.8c-1.3,0.3-2.4,1.3-2.8,2.6C31,101.8,32.5,104,36.7,105.7z"/>
</g>
</svg>
