<?xml version="1.0" encoding="utf-8"?>
<!-- Generator: Adobe Illustrator 24.2.3, SVG Export Plug-In . SVG Version: 6.00 Build 0)  -->
<svg version="1.1" id="Layer_2_1_" xmlns="http://www.w3.org/2000/svg" xmlns:xlink="http://www.w3.org/1999/xlink" x="0px" y="0px"
	 viewBox="0 0 285 285" style="enable-background:new 0 0 285 285;" xml:space="preserve">
<style type="text/css">
	.st0{fill-rule:evenodd;clip-rule:evenodd;fill:#FA033D;}
	.st1{fill:#FCFAFA;}
	.st2{clip-path:url(#SVGID_2_);}
	.st3{fill:#020202;}
	.st4{fill:#FA033D;}
	.st5{enable-background:new    ;}
	.st6{fill:none;stroke:#FCFAFA;stroke-width:0.997;stroke-miterlimit:9.9705;}
	.st7{fill:none;stroke:#FCFAFA;stroke-miterlimit:10;}
	.st8{fill:none;stroke:#FCFAFA;stroke-width:0.9961;stroke-miterlimit:9.9609;}
	.st9{fill:none;stroke:#FCFAFA;stroke-width:0.9976;stroke-miterlimit:9.9765;}
	.st10{fill:none;stroke:#FCFAFA;stroke-width:1.0018;stroke-miterlimit:10.018;}
	.st11{fill:none;stroke:#FCFAFA;stroke-width:1.0004;stroke-miterlimit:10.0045;}
	.st12{fill:none;stroke:#FCFAFA;stroke-width:0.9962;stroke-miterlimit:9.9624;}
	.st13{fill:none;stroke:#FCFAFA;stroke-width:1.0024;stroke-miterlimit:10.0245;}
</style>
<path id="Background" class="st0" d="M142.5,8.5c-74,0-134,60-134,134s60,134,134,134s134-60,134-134S216.5,8.5,142.5,8.5z"/>
<g id="Buildings">
	<circle class="st1" cx="142.5" cy="142.5" r="89.5"/>
	<g>
		<defs>
			<circle id="SVGID_1_" cx="142.5" cy="142.5" r="89.5"/>
		</defs>
		<clipPath id="SVGID_2_">
			<use xlink:href="#SVGID_1_"  style="overflow:visible;"/>
		</clipPath>
		<g class="st2">
			<path class="st3" d="M173.7,233.5v-0.4l-66.2,0.4v-0.4l-62,0.4V130.6l20.2-0.4v-2.8c0.5-1.4,1.3-2.7,2.4-3.7
				c1-0.9,2.3-1.3,3.7-1.3c0.2,0,0.5,0,0.7,0h27c0,0,2.7,0,4.1,1.7c0.8,1,1.5,2.1,2,3.3v2.9h2v-17.5H138v-6.9l19.6-5.2l18.8,4.8
				v21.5h1.8l9-7.1l19.6,0.4l9.4,6.7h22.2v106.3L173.7,233.5L173.7,233.5z"/>
		</g>
	</g>
</g>
<path id="Stars" class="st4" d="M86.5,152.5l2.9,10.9l10.9-2.9l-8,8l8,8l-10.9-2.9l-2.9,10.9l-2.9-10.9l-10.9,2.9l8-8l-8-8l10.9,2.9
	L86.5,152.5z M123.8,152.5l2.9,10.9l10.9-2.9l-8,8l8,8l-10.9-2.9l-2.9,10.9l-2.9-10.9l-10.9,2.9l8-8l-8-8l10.9,2.9L123.8,152.5z
	 M161.2,152.5l2.9,10.9l10.9-2.9l-8,8l8,8l-10.9-2.9l-2.9,10.9l-2.9-10.9l-10.9,2.9l8-8l-8-8l10.9,2.9L161.2,152.5z M198.5,152.5
	l2.9,10.9l10.9-2.9l-8,8l8,8l-10.9-2.9l-2.9,10.9l-2.9-10.9l-10.9,2.9l8-8l-8-8l10.9,2.9L198.5,152.5z"/>
<g class="st5">
	<path class="st1" d="M59.5,57.1c-1.3,1.3-1.8,2.8-1.4,4.6c0.3,1.8,1.5,3.6,3.3,5.4c3.9,3.8,7.3,4.3,10.2,1.3c0.9-0.9,1.6-1.9,2.2-3
		c0.6-1.1,1.1-2.2,1.6-3.4l4.6,4.6c-0.9,2.4-2.4,4.7-4.5,6.8c-3,3.1-6.2,4.5-9.6,4.4c-3.4-0.1-6.7-1.8-10.1-5.1
		c-2.1-2.1-3.5-4.3-4.4-6.6c-0.8-2.4-0.9-4.7-0.3-7s1.9-4.5,3.9-6.5c2.2-2.2,4.7-3.8,7.6-4.9l2.7,5.9c-1.1,0.4-2.1,0.9-3.1,1.4
		C61.3,55.6,60.4,56.3,59.5,57.1z"/>
</g>
<g class="st5">
	<path class="st6" d="M59.5,57.1c-1.3,1.3-1.8,2.8-1.4,4.6c0.3,1.8,1.5,3.6,3.3,5.4c3.9,3.8,7.3,4.3,10.2,1.3c0.9-0.9,1.6-1.9,2.2-3
		c0.6-1.1,1.1-2.2,1.6-3.4l4.6,4.6c-0.9,2.4-2.4,4.7-4.5,6.8c-3,3.1-6.2,4.5-9.6,4.4c-3.4-0.1-6.7-1.8-10.1-5.1
		c-2.1-2.1-3.5-4.3-4.4-6.6c-0.8-2.4-0.9-4.7-0.3-7s1.9-4.5,3.9-6.5c2.2-2.2,4.7-3.8,7.6-4.9l2.7,5.9c-1.1,0.4-2.1,0.9-3.1,1.4
		C61.3,55.6,60.4,56.3,59.5,57.1z"/>
</g>
<g class="st5">
	<path class="st1" d="M105.4,52.6l-6.7,3.8l-5.8-10.1l-7.8,4.4l5.8,10.1l-6.7,3.8L70,39.9l6.7-3.8l5.2,9.2l7.8-4.4l-5.2-9.2l6.7-3.8
		L105.4,52.6z"/>
</g>
<g class="st5">
	<path class="st7" d="M105.4,52.6l-6.7,3.8l-5.8-10.1l-7.8,4.4l5.8,10.1l-6.7,3.8L70,39.9l6.7-3.8l5.2,9.2l7.8-4.4l-5.2-9.2l6.7-3.8
		L105.4,52.6z"/>
</g>
<g class="st5">
	<path class="st1" d="M110.1,51.5l-8.5-27.2L109,22l8.5,27.2L110.1,51.5z"/>
</g>
<g class="st5">
	<path class="st7" d="M110.1,51.5l-8.5-27.2L109,22l8.5,27.2L110.1,51.5z"/>
</g>
<g class="st5">
	<path class="st1" d="M132,23.9c-1.8,0.2-3.1,1.1-4,2.7c-0.9,1.6-1.1,3.7-0.8,6.3c0.6,5.4,3,7.9,7.1,7.5c1.2-0.1,2.4-0.4,3.6-0.9
		c1.1-0.5,2.3-1,3.4-1.6l0.7,6.5c-2.2,1.3-4.8,2.1-7.8,2.5c-4.3,0.5-7.7-0.4-10.2-2.6c-2.5-2.2-4.1-5.7-4.6-10.3
		c-0.3-2.9-0.1-5.6,0.8-7.9c0.9-2.3,2.2-4.2,4.2-5.6c1.9-1.4,4.3-2.3,7.1-2.6c3.1-0.3,6,0,9,1l-1.7,6.3c-1.1-0.4-2.2-0.7-3.3-0.9
		C134.3,23.8,133.2,23.8,132,23.9z"/>
</g>
<g class="st5">
	<path class="st8" d="M132,23.9c-1.8,0.2-3.1,1.1-4,2.7c-0.9,1.6-1.1,3.7-0.8,6.3c0.6,5.4,3,7.9,7.1,7.5c1.2-0.1,2.4-0.4,3.6-0.9
		c1.1-0.5,2.3-1,3.4-1.6l0.7,6.5c-2.2,1.3-4.8,2.1-7.8,2.5c-4.3,0.5-7.7-0.4-10.2-2.6c-2.5-2.2-4.1-5.7-4.6-10.3
		c-0.3-2.9-0.1-5.6,0.8-7.9c0.9-2.3,2.2-4.2,4.2-5.6c1.9-1.4,4.3-2.3,7.1-2.6c3.1-0.3,6,0,9,1l-1.7,6.3c-1.1-0.4-2.2-0.7-3.3-0.9
		C134.3,23.8,133.2,23.8,132,23.9z"/>
</g>
<g class="st5">
	<path class="st1" d="M163.6,48.1l-0.6-5.5l-9.2-1.4l-2.3,5.1l-8.4-1.3L157,18.1l10.2,1.6l4.8,29.8L163.6,48.1z M162.5,36.1
		l-0.5-4.8c-0.1-1.1-0.3-2.5-0.4-4.2c-0.1-1.7-0.2-2.9-0.2-3.6c-0.2,0.6-0.6,1.7-1.2,3.1c-0.6,1.5-1.8,4.3-3.7,8.5L162.5,36.1z"/>
</g>
<g class="st5">
	<path class="st7" d="M163.6,48.1l-0.6-5.5l-9.2-1.4l-2.3,5.1l-8.4-1.3L157,18.1l10.2,1.6l4.8,29.8L163.6,48.1z M162.5,36.1
		l-0.5-4.8c-0.1-1.1-0.3-2.5-0.4-4.2c-0.1-1.7-0.2-2.9-0.2-3.6c-0.2,0.6-0.6,1.7-1.2,3.1c-0.6,1.5-1.8,4.3-3.7,8.5L162.5,36.1z"/>
</g>
<g class="st5">
	<path class="st1" d="M191,40.2l11.1,5.3l-6.6,13.9c-3.5-0.4-7.1-1.5-10.7-3.2c-4-1.9-6.5-4.5-7.5-7.8c-1.1-3.3-0.6-7.1,1.5-11.4
		c2-4.2,4.7-6.8,8.2-8s7.3-0.7,11.6,1.3c1.6,0.8,3.1,1.7,4.4,2.7c1.3,1,2.4,2,3.2,3l-4.8,4.4c-1.4-1.8-3.2-3.2-5.5-4.3
		c-2-1-3.9-1.1-5.7-0.3c-1.7,0.8-3.2,2.4-4.4,4.9c-1.2,2.4-1.5,4.5-1.1,6.2c0.4,1.7,1.5,3.1,3.4,4c1,0.5,2,0.8,3,1.1l1.9-4l-4.6-2.2
		L191,40.2z"/>
</g>
<g class="st5">
	<path class="st7" d="M191,40.2l11.1,5.3l-6.6,13.9c-3.5-0.4-7.1-1.5-10.7-3.2c-4-1.9-6.5-4.5-7.5-7.8c-1.1-3.3-0.6-7.1,1.5-11.4
		c2-4.2,4.7-6.8,8.2-8s7.3-0.7,11.6,1.3c1.6,0.8,3.1,1.7,4.4,2.7c1.3,1,2.4,2,3.2,3l-4.8,4.4c-1.4-1.8-3.2-3.2-5.5-4.3
		c-2-1-3.9-1.1-5.7-0.3c-1.7,0.8-3.2,2.4-4.4,4.9c-1.2,2.4-1.5,4.5-1.1,6.2c0.4,1.7,1.5,3.1,3.4,4c1,0.5,2,0.8,3,1.1l1.9-4l-4.6-2.2
		L191,40.2z"/>
</g>
<g class="st5">
	<path class="st1" d="M228,70.8c-3.3,3.5-6.6,5.4-10,5.6c-3.4,0.2-6.8-1.2-10.1-4.3c-3.3-3-4.9-6.3-5-9.7c0-3.5,1.6-6.9,4.8-10.4
		c3.2-3.5,6.6-5.3,10-5.5c3.4-0.2,6.8,1.2,10.1,4.3c3.3,3.1,5,6.3,5,9.7C232.8,63.8,231.2,67.2,228,70.8z M213.6,57.4
		c-3.8,4-4.2,7.3-1.4,10c1.4,1.3,2.9,1.8,4.5,1.5c1.6-0.3,3.4-1.5,5.3-3.6c1.9-2.1,3-3.9,3.2-5.6c0.2-1.6-0.4-3.1-1.7-4.4
		C220.7,52.6,217.4,53.3,213.6,57.4z"/>
</g>
<g class="st5">
	<path class="st9" d="M228,70.8c-3.3,3.5-6.6,5.4-10,5.6c-3.4,0.2-6.8-1.2-10.1-4.3c-3.3-3-4.9-6.3-5-9.7c0-3.5,1.6-6.9,4.8-10.4
		c3.2-3.5,6.6-5.3,10-5.5c3.4-0.2,6.8,1.2,10.1,4.3c3.3,3.1,5,6.3,5,9.7C232.8,63.8,231.2,67.2,228,70.8z M213.6,57.4
		c-3.8,4-4.2,7.3-1.4,10c1.4,1.3,2.9,1.8,4.5,1.5c1.6-0.3,3.4-1.5,5.3-3.6c1.9-2.1,3-3.9,3.2-5.6c0.2-1.6-0.4-3.1-1.7-4.4
		C220.7,52.6,217.4,53.3,213.6,57.4z"/>
</g>
<g class="st5">
	<path class="st1" d="M230.7,103.2l-3.4-6.9l20-9.8l-3.1-6.3l5.7-2.8l9.5,19.5l-5.7,2.8l-3.1-6.3L230.7,103.2z"/>
</g>
<g class="st5">
	<path class="st10" d="M230.7,103.2l-3.4-6.9l20-9.8l-3.1-6.3l5.7-2.8l9.5,19.5l-5.7,2.8l-3.1-6.3L230.7,103.2z"/>
</g>
<g class="st5">
	<path class="st1" d="M238.4,128.5l-4-16.5l27.7-6.7l4,16.5l-6,1.5l-2.2-9l-4.4,1.1l2,8.3l-6,1.5l-2-8.3l-5.2,1.3l2.2,9L238.4,128.5
		z"/>
</g>
<g class="st5">
	<path class="st7" d="M238.4,128.5l-4-16.5l27.7-6.7l4,16.5l-6,1.5l-2.2-9l-4.4,1.1l2,8.3l-6,1.5l-2-8.3l-5.2,1.3l2.2,9L238.4,128.5
		z"/>
</g>
<g class="st5">
	<path class="st1" d="M238.6,159.1l0.3-10.1l20.4-9.8l0-0.2c-3.2,0.2-5.6,0.2-7.3,0.2l-12.9-0.4l0.2-6.8l28.5,0.9l-0.3,10.1
		l-20.1,9.8l0,0.1c2.9-0.1,5.2-0.1,6.9-0.1l12.9,0.4l-0.2,6.9L238.6,159.1z"/>
</g>
<g class="st5">
	<path class="st11" d="M238.6,159.1l0.3-10.1l20.4-9.8l0-0.2c-3.2,0.2-5.6,0.2-7.3,0.2l-12.9-0.4l0.2-6.8l28.5,0.9l-0.3,10.1
		l-20.1,9.8l0,0.1c2.9-0.1,5.2-0.1,6.9-0.1l12.9,0.4l-0.2,6.9L238.6,159.1z"/>
</g>
<g class="st5">
	<path class="st1" d="M231.6,180.3l5.5,0.4l3.1-8.7l-4.5-3.1l2.8-8l23.9,18.2l-3.4,9.7l-30-0.6L231.6,180.3z M243.5,181.3l4.8,0.4
		c1.1,0.1,2.5,0.2,4.1,0.4c1.7,0.2,2.9,0.3,3.6,0.4c-0.6-0.3-1.5-0.9-2.9-1.7c-1.3-0.8-3.9-2.5-7.7-5.1L243.5,181.3z"/>
</g>
<g class="st5">
	<path class="st12" d="M231.6,180.3l5.5,0.4l3.1-8.7l-4.5-3.1l2.8-8l23.9,18.2l-3.4,9.7l-30-0.6L231.6,180.3z M243.5,181.3l4.8,0.4
		c1.1,0.1,2.5,0.2,4.1,0.4c1.7,0.2,2.9,0.3,3.6,0.4c-0.6-0.3-1.5-0.9-2.9-1.7c-1.3-0.8-3.9-2.5-7.7-5.1L243.5,181.3z"/>
</g>
<g class="st5">
	<path class="st1" d="M211.3,211.5l6.1-8.1l22.3,3.8l0.1-0.1c-2.7-1.7-4.7-3.1-6-4.1l-10.3-7.8l4.1-5.4l22.8,17.2l-6.1,8l-22.1-3.7
		l-0.1,0.1c2.4,1.6,4.3,2.9,5.7,4l10.3,7.8l-4.1,5.5L211.3,211.5z"/>
</g>
<g class="st5">
	<path class="st7" d="M211.3,211.5l6.1-8.1l22.3,3.8l0.1-0.1c-2.7-1.7-4.7-3.1-6-4.1l-10.3-7.8l4.1-5.4l22.8,17.2l-6.1,8l-22.1-3.7
		l-0.1,0.1c2.4,1.6,4.3,2.9,5.7,4l10.3,7.8l-4.1,5.5L211.3,211.5z"/>
</g>
<g class="st5">
	<path class="st1" d="M197.4,221.9l6.2-4.6l13.4,17.8l5.6-4.2l3.8,5l-17.3,13l-3.8-5l5.5-4.2L197.4,221.9z"/>
</g>
<g class="st5">
	<path class="st7" d="M197.4,221.9l6.2-4.6l13.4,17.8l5.6-4.2l3.8,5l-17.3,13l-3.8-5l5.5-4.2L197.4,221.9z"/>
</g>
<g class="st5">
	<path class="st1" d="M176,242.7c-0.7-1.6-1-3.2-0.7-4.9c0.3-1.6,1-3.1,2.2-4.5c1.2-1.4,2.9-2.5,5-3.5c1.7-0.8,3.2-1.3,4.5-1.6
		c1.3-0.3,2.7-0.4,4.2-0.4l2.8,6.3c-1.7-0.1-3.3,0-4.9,0.3s-3,0.7-4.2,1.2c-1,0.5-1.7,1-2.1,1.6c-0.3,0.6-0.4,1.2-0.1,1.7
		c0.2,0.4,0.4,0.6,0.7,0.8c0.3,0.2,0.8,0.3,1.3,0.4c0.6,0.1,2,0.1,4.2,0.1c2,0,3.7,0.2,4.8,0.5c1.2,0.3,2.2,0.9,3,1.7
		c0.8,0.8,1.5,1.8,2.1,3.1c1.1,2.4,1,4.7-0.1,6.8c-1.1,2.1-3.2,3.9-6.3,5.2c-2.7,1.2-5.7,1.8-9.1,1.8l-0.3-6.4
		c2.9,0,5.3-0.3,7.1-1.1c0.9-0.4,1.5-0.9,1.8-1.4c0.3-0.5,0.3-1,0.1-1.5c-0.2-0.5-0.7-0.9-1.4-1c-0.7-0.2-2.5-0.3-5.3-0.3
		c-2.7,0-4.7-0.4-6.1-1.2C177.8,245.8,176.7,244.5,176,242.7z"/>
</g>
<g class="st5">
	<path class="st7" d="M176,242.7c-0.7-1.6-1-3.2-0.7-4.9c0.3-1.6,1-3.1,2.2-4.5c1.2-1.4,2.9-2.5,5-3.5c1.7-0.8,3.2-1.3,4.5-1.6
		c1.3-0.3,2.7-0.4,4.2-0.4l2.8,6.3c-1.7-0.1-3.3,0-4.9,0.3s-3,0.7-4.2,1.2c-1,0.5-1.7,1-2.1,1.6c-0.3,0.6-0.4,1.2-0.1,1.7
		c0.2,0.4,0.4,0.6,0.7,0.8c0.3,0.2,0.8,0.3,1.3,0.4c0.6,0.1,2,0.1,4.2,0.1c2,0,3.7,0.2,4.8,0.5c1.2,0.3,2.2,0.9,3,1.7
		c0.8,0.8,1.5,1.8,2.1,3.1c1.1,2.4,1,4.7-0.1,6.8c-1.1,2.1-3.2,3.9-6.3,5.2c-2.7,1.2-5.7,1.8-9.1,1.8l-0.3-6.4
		c2.9,0,5.3-0.3,7.1-1.1c0.9-0.4,1.5-0.9,1.8-1.4c0.3-0.5,0.3-1,0.1-1.5c-0.2-0.5-0.7-0.9-1.4-1c-0.7-0.2-2.5-0.3-5.3-0.3
		c-2.7,0-4.7-0.4-6.1-1.2C177.8,245.8,176.7,244.5,176,242.7z"/>
</g>
<g class="st5">
	<path class="st1" d="M148.6,238.9l6.3,20.4l0.2,0c-0.4-3.5-0.6-6.2-0.6-8.1l-0.3-12.4l6.8-0.2l0.7,28.5l-10.3,0.2l-6.4-20.1l-0.2,0
		l-5.4,20.4l-10.3,0.2l-0.7-28.5l7.1-0.2l0.3,12.5c0,0.7,0,1.4,0,2.2c0,0.8,0,2.7-0.1,5.8l0.2,0l5.3-20.6L148.6,238.9z"/>
</g>
<g class="st5">
	<path class="st7" d="M148.6,238.9l6.3,20.4l0.2,0c-0.4-3.5-0.6-6.2-0.6-8.1l-0.3-12.4l6.8-0.2l0.7,28.5l-10.3,0.2l-6.4-20.1l-0.2,0
		l-5.4,20.4l-10.3,0.2l-0.7-28.5l7.1-0.2l0.3,12.5c0,0.7,0,1.4,0,2.2c0,0.8,0,2.7-0.1,5.8l0.2,0l5.3-20.6L148.6,238.9z"/>
</g>
<g class="st5">
	<path class="st1" d="M93.7,243.1c1.5-4.6,3.8-7.6,6.9-9.3c3-1.6,6.7-1.7,11-0.2c4.3,1.4,7.1,3.7,8.6,6.9c1.5,3.1,1.4,7-0.1,11.6
		c-1.5,4.5-3.8,7.6-6.9,9.2c-3.1,1.6-6.7,1.7-11,0.3c-4.3-1.5-7.2-3.7-8.6-6.8C92.1,251.5,92.2,247.7,93.7,243.1z M112.4,249.4
		c1.8-5.2,0.8-8.5-2.8-9.7c-1.9-0.6-3.4-0.5-4.8,0.5s-2.4,2.8-3.3,5.5c-0.9,2.7-1.1,4.9-0.7,6.5c0.5,1.6,1.6,2.7,3.4,3.3
		C107.9,256.7,110.6,254.7,112.4,249.4z"/>
</g>
<g class="st5">
	<path class="st13" d="M93.7,243.1c1.5-4.6,3.8-7.6,6.9-9.3c3-1.6,6.7-1.7,11-0.2c4.3,1.4,7.1,3.7,8.6,6.9c1.5,3.1,1.4,7-0.1,11.6
		c-1.5,4.5-3.8,7.6-6.9,9.2c-3.1,1.6-6.7,1.7-11,0.3c-4.3-1.5-7.2-3.7-8.6-6.8C92.1,251.5,92.2,247.7,93.7,243.1z M112.4,249.4
		c1.8-5.2,0.8-8.5-2.8-9.7c-1.9-0.6-3.4-0.5-4.8,0.5s-2.4,2.8-3.3,5.5c-0.9,2.7-1.1,4.9-0.7,6.5c0.5,1.6,1.6,2.7,3.4,3.3
		C107.9,256.7,110.6,254.7,112.4,249.4z"/>
</g>
<g class="st5">
	<path class="st1" d="M65.6,241.2l-7-5l24.2-17.8l7.4,5.3l-9,28.6l-7-5l5.3-14c1.2-3.1,2.2-5.2,2.8-6.2c-0.6,0.7-1.4,1.5-2.4,2.5
		c-1,1-1.8,1.7-2.5,2.2L65.6,241.2z"/>
</g>
<g class="st5">
	<path class="st7" d="M65.6,241.2l-7-5l24.2-17.8l7.4,5.3l-9,28.6l-7-5l5.3-14c1.2-3.1,2.2-5.2,2.8-6.2c-0.6,0.7-1.4,1.5-2.4,2.5
		c-1,1-1.8,1.7-2.5,2.2L65.6,241.2z"/>
</g>
<g class="st5">
	<path class="st1" d="M63.4,198.5l11,12.8l-21.6,18.6l-11-12.8l4.7-4l6,7l3.4-2.9l-5.6-6.5l4.7-4l5.6,6.5l4.1-3.5l-6-7L63.4,198.5z"
		/>
</g>
<g class="st5">
	<path class="st7" d="M63.4,198.5l11,12.8l-21.6,18.6l-11-12.8l4.7-4l6,7l3.4-2.9l-5.6-6.5l4.7-4l5.6,6.5l4.1-3.5l-6-7L63.4,198.5z"
		/>
</g>
<g class="st5">
	<path class="st1" d="M55.5,184.5L39,198.1l0.1,0.2c3.1-1.6,5.5-2.9,7.3-3.6l11.4-5l2.7,6.3l-26.1,11.4l-4.1-9.4l16.2-13.6l-0.1-0.1
		L25.5,187l-4.1-9.4l26.1-11.4l2.8,6.5l-11.5,5c-0.6,0.3-1.3,0.5-2,0.8c-0.7,0.3-2.6,1-5.5,2.1l0.1,0.2l21.1-2.9L55.5,184.5z"/>
</g>
<g class="st5">
	<path class="st7" d="M55.5,184.5L39,198.1l0.1,0.2c3.1-1.6,5.5-2.9,7.3-3.6l11.4-5l2.7,6.3l-26.1,11.4l-4.1-9.4l16.2-13.6l-0.1-0.1
		L25.5,187l-4.1-9.4l26.1-11.4l2.8,6.5l-11.5,5c-0.6,0.3-1.3,0.5-2,0.8c-0.7,0.3-2.6,1-5.5,2.1l0.1,0.2l21.1-2.9L55.5,184.5z"/>
</g>
<g class="st5">
	<path class="st1" d="M45.6,144.3l1.9,16.8l-28.3,3.2l-1.9-16.8l6.1-0.7l1,9.2l4.5-0.5l-1-8.5l6.1-0.7l1,8.5l5.4-0.6l-1-9.2
		L45.6,144.3z"/>
</g>
<g class="st5">
	<path class="st7" d="M45.6,144.3l1.9,16.8l-28.3,3.2l-1.9-16.8l6.1-0.7l1,9.2l4.5-0.5l-1-8.5l6.1-0.7l1,8.5l5.4-0.6l-1-9.2
		L45.6,144.3z"/>
</g>
<g class="st5">
	<path class="st1" d="M49.3,113.9l-1.6,10l-21.5,7.2l0,0.2c3.2,0.2,5.6,0.5,7.2,0.8l12.7,2l-1.1,6.7l-28.2-4.5l1.6-9.9l21.2-7.2
		l0-0.1c-2.9-0.3-5.2-0.5-6.9-0.8l-12.7-2l1.1-6.8L49.3,113.9z"/>
</g>
<g class="st5">
	<path class="st7" d="M49.3,113.9l-1.6,10l-21.5,7.2l0,0.2c3.2,0.2,5.6,0.5,7.2,0.8l12.7,2l-1.1,6.7l-28.2-4.5l1.6-9.9l21.2-7.2
		l0-0.1c-2.9-0.3-5.2-0.5-6.9-0.8l-12.7-2l1.1-6.8L49.3,113.9z"/>
</g>
<g class="st5">
	<path class="st1" d="M56.7,98.1l-3.3,7l-20.1-9.4l-3,6.3l-5.7-2.7l9.2-19.6l5.7,2.7l-2.9,6.3L56.7,98.1z"/>
</g>
<g class="st5">
	<path class="st7" d="M56.7,98.1l-3.3,7l-20.1-9.4l-3,6.3l-5.7-2.7l9.2-19.6l5.7,2.7l-2.9,6.3L56.7,98.1z"/>
</g>
</svg>
