<svg id="Layer_2" data-name="Layer 2" xmlns="http://www.w3.org/2000/svg" xmlns:xlink="http://www.w3.org/1999/xlink" viewBox="0 0 285 285"><defs><style>.cls-1,.cls-10,.cls-11,.cls-12,.cls-13,.cls-14,.cls-15,.cls-8,.cls-9{fill:none;}.cls-2,.cls-6{fill:#fa033d;}.cls-2{fill-rule:evenodd;}.cls-3{fill:#fcfafa;}.cls-4{clip-path:url(#clip-path);}.cls-5{fill:#020202;}.cls-7{isolation:isolate;}.cls-10,.cls-11,.cls-12,.cls-13,.cls-14,.cls-15,.cls-8,.cls-9{stroke:#fcfafa;}.cls-8{stroke-miterlimit:9.97;stroke-width:1px;}.cls-9{stroke-miterlimit:10;}.cls-10{stroke-miterlimit:9.96;stroke-width:1px;}.cls-11{stroke-miterlimit:9.98;stroke-width:1px;}.cls-12{stroke-miterlimit:10.02;stroke-width:1px;}.cls-13{stroke-miterlimit:10;}.cls-14{stroke-miterlimit:9.96;stroke-width:1px;}.cls-15{stroke-miterlimit:10.02;stroke-width:1px;}</style><clipPath id="clip-path"><circle class="cls-1" cx="142.5" cy="142.5" r="89.5"/></clipPath></defs><path id="Background" class="cls-2" d="M142.5,8.5a134,134,0,1,0,134,134A134,134,0,0,0,142.5,8.5Z"/><g id="Buildings"><circle class="cls-3" cx="142.5" cy="142.5" r="89.5"/><g class="cls-4"><path class="cls-5" d="M173.73,233.54v-.41l-66.21.41v-.4l-62,.4V130.59l20.2-.41v-2.85a10,10,0,0,1,2.37-3.73,5.35,5.35,0,0,1,3.69-1.29,4.09,4.09,0,0,1,.7,0h27s2.72,0,4,1.66a14.38,14.38,0,0,1,2,3.32v2.85h2V112.67H138v-6.91l19.63-5.18,18.82,4.75v21.53h1.84l9-7.06,19.57.41,9.41,6.65H238.5V233.13l-64.77.41Z"/></g></g><path id="Stars" class="cls-6" d="M86.5,152.5l2.93,10.93,10.94-2.93-8,8,8,8-10.94-2.93L86.5,184.5l-2.93-10.93L72.63,176.5l8-8-8-8,10.94,2.93Zm37.33,0,2.94,10.93,10.93-2.93-8,8,8,8-10.93-2.93-2.94,10.93-2.93-10.93L110,176.5l8-8-8-8,10.93,2.93Zm37.34,0,2.93,10.93L175,160.5l-8,8,8,8-10.93-2.93-2.93,10.93-2.94-10.93-10.9,2.93,8-8-8-8,10.93,2.93Zm37.33,0,2.93,10.93,10.94-2.93-8,8,8,8-10.94-2.93L198.5,184.5l-2.93-10.93-10.94,2.93,8-8-8-8,10.94,2.93Z"/><g class="cls-7"><path class="cls-3" d="M59.54,57.13a4.92,4.92,0,0,0-1.4,4.63,10.9,10.9,0,0,0,3.33,5.44Q67.32,73,71.7,68.52a12.85,12.85,0,0,0,2.2-3,37.3,37.3,0,0,0,1.6-3.43l4.62,4.57a19.89,19.89,0,0,1-4.53,6.84Q71.07,78.1,66,77.94T55.9,72.8a17.24,17.24,0,0,1-4.36-6.63,12,12,0,0,1-.31-7,14.48,14.48,0,0,1,3.88-6.5,20.32,20.32,0,0,1,7.61-4.87l2.66,5.93a26.42,26.42,0,0,0-3.1,1.37A11,11,0,0,0,59.54,57.13Z"/></g><g id="English" class="cls-7"><path class="cls-8" d="M59.54,57.13a4.92,4.92,0,0,0-1.4,4.63,10.9,10.9,0,0,0,3.33,5.44Q67.32,73,71.7,68.52a12.85,12.85,0,0,0,2.2-3,37.3,37.3,0,0,0,1.6-3.43l4.62,4.57a19.89,19.89,0,0,1-4.53,6.84Q71.07,78.1,66,77.94T55.9,72.8a17.24,17.24,0,0,1-4.36-6.63,12,12,0,0,1-.31-7,14.48,14.48,0,0,1,3.88-6.5,20.32,20.32,0,0,1,7.61-4.87l2.66,5.93a26.42,26.42,0,0,0-3.1,1.37A11,11,0,0,0,59.54,57.13Z"/></g><g class="cls-7"><path class="cls-3" d="M105.4,52.57,98.67,56.4,92.91,46.3l-7.78,4.43,5.76,10.11-6.73,3.83L70,39.89l6.73-3.84L82,45.24l7.78-4.43-5.24-9.19,6.73-3.84Z"/></g><g class="cls-7"><path class="cls-9" d="M105.4,52.57,98.67,56.4,92.91,46.3l-7.78,4.43,5.76,10.11-6.73,3.83L70,39.89l6.73-3.84L82,45.24l7.78-4.43-5.24-9.19,6.73-3.84Z"/></g><g class="cls-7"><path class="cls-3" d="M110.07,51.51l-8.48-27.23L109,22l8.48,27.24Z"/></g><g class="cls-7"><path class="cls-9" d="M110.07,51.51l-8.48-27.23L109,22l8.48,27.24Z"/></g><g class="cls-7"><path class="cls-3" d="M132,23.91a4.88,4.88,0,0,0-4,2.7,10.86,10.86,0,0,0-.84,6.32q.9,8.16,7.1,7.46a12.5,12.5,0,0,0,3.58-.92,37.66,37.66,0,0,0,3.39-1.65l.72,6.45a19.6,19.6,0,0,1-7.83,2.46q-6.39.71-10.21-2.62t-4.6-10.35a17.21,17.21,0,0,1,.79-7.89,11.91,11.91,0,0,1,4.19-5.63,14.33,14.33,0,0,1,7.09-2.6,20.16,20.16,0,0,1,9,1l-1.67,6.26A26.82,26.82,0,0,0,135.4,24,11.09,11.09,0,0,0,132,23.91Z"/></g><g class="cls-7"><path class="cls-10" d="M132,23.91a4.88,4.88,0,0,0-4,2.7,10.86,10.86,0,0,0-.84,6.32q.9,8.16,7.1,7.46a12.5,12.5,0,0,0,3.58-.92,37.66,37.66,0,0,0,3.39-1.65l.72,6.45a19.6,19.6,0,0,1-7.83,2.46q-6.39.71-10.21-2.62t-4.6-10.35a17.21,17.21,0,0,1,.79-7.89,11.91,11.91,0,0,1,4.19-5.63,14.33,14.33,0,0,1,7.09-2.6,20.16,20.16,0,0,1,9,1l-1.67,6.26A26.82,26.82,0,0,0,135.4,24,11.09,11.09,0,0,0,132,23.91Z"/></g><g class="cls-7"><path class="cls-3" d="M163.63,48.14l-.55-5.5-9.16-1.45-2.25,5.06-8.37-1.32L157,18.08l10.15,1.61L172,49.45Zm-1.15-12L162,31.33c-.12-1.08-.26-2.46-.4-4.16s-.23-2.9-.25-3.63c-.22.64-.62,1.68-1.2,3.13s-1.8,4.29-3.66,8.53Z"/></g><g class="cls-7"><path class="cls-9" d="M163.63,48.14l-.55-5.5-9.16-1.45-2.25,5.06-8.37-1.32L157,18.08l10.15,1.61L172,49.45Zm-1.15-12L162,31.33c-.12-1.08-.26-2.46-.4-4.16s-.23-2.9-.25-3.63c-.22.64-.62,1.68-1.2,3.13s-1.8,4.29-3.66,8.53Z"/></g><g class="cls-7"><path class="cls-3" d="M191.05,40.22l11.11,5.31L195.53,59.4a34,34,0,0,1-10.69-3.2q-6-2.85-7.55-7.85T178.75,37q3-6.24,8.19-8t11.62,1.29a24.88,24.88,0,0,1,4.37,2.65,21.22,21.22,0,0,1,3.2,3l-4.81,4.41a15,15,0,0,0-5.45-4.3,6.45,6.45,0,0,0-5.66-.27,9.52,9.52,0,0,0-4.37,4.87,9.61,9.61,0,0,0-1.12,6.22,5.76,5.76,0,0,0,3.43,4,14.3,14.3,0,0,0,3,1.07l1.93-4-4.6-2.2Z"/></g><g class="cls-7"><path class="cls-9" d="M191.05,40.22l11.11,5.31L195.53,59.4a34,34,0,0,1-10.69-3.2q-6-2.85-7.55-7.85T178.75,37q3-6.24,8.19-8t11.62,1.29a24.88,24.88,0,0,1,4.37,2.65,21.22,21.22,0,0,1,3.2,3l-4.81,4.41a15,15,0,0,0-5.45-4.3,6.45,6.45,0,0,0-5.66-.27,9.52,9.52,0,0,0-4.37,4.87,9.61,9.61,0,0,0-1.12,6.22,5.76,5.76,0,0,0,3.43,4,14.3,14.3,0,0,0,3,1.07l1.93-4-4.6-2.2Z"/></g><g class="cls-7"><path class="cls-3" d="M228,70.76q-4.89,5.25-10,5.59t-10.1-4.3c-3.26-3-4.91-6.29-5-9.75s1.58-6.94,4.84-10.44,6.56-5.3,10-5.52,6.81,1.22,10.11,4.3,5,6.33,5,9.74S231.22,67.24,228,70.76ZM213.62,57.41q-5.62,6-1.42,10a4.94,4.94,0,0,0,4.53,1.49q2.4-.51,5.3-3.61t3.24-5.59a4.86,4.86,0,0,0-1.74-4.4Q219.3,51.32,213.62,57.41Z"/></g><g class="cls-7"><path class="cls-11" d="M228,70.76q-4.89,5.25-10,5.59t-10.1-4.3c-3.26-3-4.91-6.29-5-9.75s1.58-6.94,4.84-10.44,6.56-5.3,10-5.52,6.81,1.22,10.11,4.3,5,6.33,5,9.74S231.22,67.24,228,70.76ZM213.62,57.41q-5.62,6-1.42,10a4.94,4.94,0,0,0,4.53,1.49q2.4-.51,5.3-3.61t3.24-5.59a4.86,4.86,0,0,0-1.74-4.4Q219.3,51.32,213.62,57.41Z"/></g><g class="cls-7"><path class="cls-3" d="M230.67,103.23l-3.4-6.94,20-9.77-3.07-6.27,5.67-2.78,9.51,19.46-5.67,2.77-3.05-6.25Z"/></g><g class="cls-7"><path class="cls-12" d="M230.67,103.23l-3.4-6.94,20-9.77-3.07-6.27,5.67-2.78,9.51,19.46-5.67,2.77-3.05-6.25Z"/></g><g class="cls-7"><path class="cls-3" d="M238.41,128.45l-4-16.45,27.72-6.74,4,16.46-6,1.46-2.17-9-4.37,1.06,2,8.31-6,1.46-2-8.31L242.34,118l2.18,9Z"/></g><g class="cls-7"><path class="cls-9" d="M238.41,128.45l-4-16.45,27.72-6.74,4,16.46-6,1.46-2.17-9-4.37,1.06,2,8.31-6,1.46-2-8.31L242.34,118l2.18,9Z"/></g><g class="cls-7"><path class="cls-3" d="M238.55,159.11l.31-10.1,20.41-9.82V139c-3.17.16-5.58.21-7.25.16l-12.86-.39.21-6.83,28.52.86-.3,10.07-20.13,9.78v.12q4.32-.15,6.94-.07l12.9.39-.21,6.87Z"/></g><g class="cls-7"><path class="cls-13" d="M238.55,159.11l.31-10.1,20.41-9.82V139c-3.17.16-5.58.21-7.25.16l-12.86-.39.21-6.83,28.52.86-.3,10.07-20.13,9.78v.12q4.32-.15,6.94-.07l12.9.39-.21,6.87Z"/></g><g class="cls-7"><path class="cls-3" d="M231.56,180.27l5.49.44,3-8.71-4.55-3.12,2.8-8,23.85,18.2-3.39,9.67-30-.6Zm12,1,4.8.39c1.08.07,2.46.19,4.14.35s2.89.29,3.61.41q-.88-.49-2.85-1.74t-7.7-5.12Z"/></g><g class="cls-7"><path class="cls-14" d="M231.56,180.27l5.49.44,3-8.71-4.55-3.12,2.8-8,23.85,18.2-3.39,9.67-30-.6Zm12,1,4.8.39c1.08.07,2.46.19,4.14.35s2.89.29,3.61.41q-.88-.49-2.85-1.74t-7.7-5.12Z"/></g><g class="cls-7"><path class="cls-3" d="M211.32,211.47l6.1-8.06,22.31,3.81.11-.14c-2.67-1.71-4.67-3.06-6-4.07l-10.26-7.75,4.12-5.45L250.46,207l-6.08,8-22.07-3.67-.07.09q3.6,2.39,5.69,4l10.29,7.78-4.14,5.48Z"/></g><g class="cls-7"><path class="cls-9" d="M211.32,211.47l6.1-8.06,22.31,3.81.11-.14c-2.67-1.71-4.67-3.06-6-4.07l-10.26-7.75,4.12-5.45L250.46,207l-6.08,8-22.07-3.67-.07.09q3.6,2.39,5.69,4l10.29,7.78-4.14,5.48Z"/></g><g class="cls-7"><path class="cls-3" d="M197.41,222l6.16-4.64,13.37,17.75,5.56-4.19,3.79,5-17.27,13-3.79-5,5.55-4.18Z"/></g><g class="cls-7"><path class="cls-9" d="M197.41,222l6.16-4.64,13.37,17.75,5.56-4.19,3.79,5-17.27,13-3.79-5,5.55-4.18Z"/></g><g class="cls-7"><path class="cls-3" d="M176,242.74a8.42,8.42,0,0,1-.69-4.85,8.82,8.82,0,0,1,2.25-4.51,14.42,14.42,0,0,1,5-3.46,24,24,0,0,1,4.53-1.58,17.74,17.74,0,0,1,4.24-.36l2.79,6.27a23.59,23.59,0,0,0-4.9.25,17,17,0,0,0-4.25,1.21,4.16,4.16,0,0,0-2.06,1.56,1.84,1.84,0,0,0-.11,1.73,1.74,1.74,0,0,0,.71.8,3.77,3.77,0,0,0,1.31.39,40.61,40.61,0,0,0,4.21.13,18.76,18.76,0,0,1,4.83.54,7.58,7.58,0,0,1,3,1.66,9.18,9.18,0,0,1,2.1,3.06,7.3,7.3,0,0,1-.12,6.78q-1.72,3.18-6.3,5.22a22.31,22.31,0,0,1-9.09,1.81l-.27-6.4a17.11,17.11,0,0,0,7.06-1.14,3.54,3.54,0,0,0,1.78-1.37A1.6,1.6,0,0,0,192,249a1.87,1.87,0,0,0-1.4-1,33.47,33.47,0,0,0-5.29-.29,13,13,0,0,1-6.13-1.17A7.76,7.76,0,0,1,176,242.74Z"/></g><g class="cls-7"><path class="cls-9" d="M176,242.74a8.42,8.42,0,0,1-.69-4.85,8.82,8.82,0,0,1,2.25-4.51,14.42,14.42,0,0,1,5-3.46,24,24,0,0,1,4.53-1.58,17.74,17.74,0,0,1,4.24-.36l2.79,6.27a23.59,23.59,0,0,0-4.9.25,17,17,0,0,0-4.25,1.21,4.16,4.16,0,0,0-2.06,1.56,1.84,1.84,0,0,0-.11,1.73,1.74,1.74,0,0,0,.71.8,3.77,3.77,0,0,0,1.31.39,40.61,40.61,0,0,0,4.21.13,18.76,18.76,0,0,1,4.83.54,7.58,7.58,0,0,1,3,1.66,9.18,9.18,0,0,1,2.1,3.06,7.3,7.3,0,0,1-.12,6.78q-1.72,3.18-6.3,5.22a22.31,22.31,0,0,1-9.09,1.81l-.27-6.4a17.11,17.11,0,0,0,7.06-1.14,3.54,3.54,0,0,0,1.78-1.37A1.6,1.6,0,0,0,192,249a1.87,1.87,0,0,0-1.4-1,33.47,33.47,0,0,0-5.29-.29,13,13,0,0,1-6.13-1.17A7.76,7.76,0,0,1,176,242.74Z"/></g><g class="cls-7"><path class="cls-3" d="M148.56,238.88l6.31,20.4H155q-.53-5.23-.59-8.15l-.29-12.38,6.83-.16.65,28.52-10.26.24L145,247.24h-.16l-5.36,20.38-10.28.24-.66-28.52,7.08-.16.29,12.5c0,.65,0,1.37,0,2.17s-.05,2.74-.13,5.83H136l5.28-20.63Z"/></g><g class="cls-7"><path class="cls-9" d="M148.56,238.88l6.31,20.4H155q-.53-5.23-.59-8.15l-.29-12.38,6.83-.16.65,28.52-10.26.24L145,247.24h-.16l-5.36,20.38-10.28.24-.66-28.52,7.08-.16.29,12.5c0,.65,0,1.37,0,2.17s-.05,2.74-.13,5.83H136l5.28-20.63Z"/></g><g class="cls-7"><path class="cls-3" d="M93.74,243.08q2.3-6.84,6.85-9.27t11-.25q6.38,2.15,8.57,6.87T120.08,252q-2.28,6.76-6.86,9.19t-11,.26q-6.47-2.19-8.61-6.85T93.74,243.08Zm18.64,6.28q2.66-7.86-2.82-9.7a5,5,0,0,0-4.76.52q-2,1.45-3.35,5.5c-.91,2.7-1.13,4.86-.66,6.45a4.9,4.9,0,0,0,3.42,3.31Q109.72,257.3,112.38,249.36Z"/></g><g class="cls-7"><path class="cls-15" d="M93.74,243.08q2.3-6.84,6.85-9.27t11-.25q6.38,2.15,8.57,6.87T120.08,252q-2.28,6.76-6.86,9.19t-11,.26q-6.47-2.19-8.61-6.85T93.74,243.08Zm18.64,6.28q2.66-7.86-2.82-9.7a5,5,0,0,0-4.76.52q-2,1.45-3.35,5.5c-.91,2.7-1.13,4.86-.66,6.45a4.9,4.9,0,0,0,3.42,3.31Q109.72,257.3,112.38,249.36Z"/></g><g class="cls-7"><path class="cls-3" d="M65.58,241.19l-7-5,24.2-17.77,7.38,5.28-9,28.61-7.05-5,5.25-14A44,44,0,0,1,82.15,227q-.91,1-2.43,2.46c-1,1-1.84,1.69-2.46,2.2Z"/></g><g class="cls-7"><path class="cls-9" d="M65.58,241.19l-7-5,24.2-17.77,7.38,5.28-9,28.61-7.05-5,5.25-14A44,44,0,0,1,82.15,227q-.91,1-2.43,2.46c-1,1-1.84,1.69-2.46,2.2Z"/></g><g class="cls-7"><path class="cls-3" d="M63.38,198.49l11,12.84L52.78,229.92l-11-12.84,4.69-4,6,7,3.41-2.93-5.57-6.48,4.69-4,5.57,6.48,4.08-3.51-6-7Z"/></g><g class="cls-7"><path class="cls-9" d="M63.38,198.49l11,12.84L52.78,229.92l-11-12.84,4.69-4,6,7,3.41-2.93-5.57-6.48,4.69-4,5.57,6.48,4.08-3.51-6-7Z"/></g><g class="cls-7"><path class="cls-3" d="M55.55,184.54l-16.5,13.57.07.16c3.1-1.65,5.53-2.87,7.31-3.64l11.36-4.95,2.73,6.26-26.15,11.4-4.1-9.41,16.18-13.55-.06-.14L25.49,187l-4.11-9.42,26.15-11.41,2.83,6.49-11.46,5-2,.84c-.74.3-2.55,1-5.45,2.09l.07.16,21.09-2.92Z"/></g><g class="cls-7"><path class="cls-9" d="M55.55,184.54l-16.5,13.57.07.16c3.1-1.65,5.53-2.87,7.31-3.64l11.36-4.95,2.73,6.26-26.15,11.4-4.1-9.41,16.18-13.55-.06-.14L25.49,187l-4.11-9.42,26.15-11.41,2.83,6.49-11.46,5-2,.84c-.74.3-2.55,1-5.45,2.09l.07.16,21.09-2.92Z"/></g><g class="cls-7"><path class="cls-3" d="M45.6,144.35l1.89,16.83-28.35,3.17-1.89-16.83,6.15-.69,1,9.17,4.46-.5L27.94,147l6.14-.69,1,8.5,5.35-.6-1-9.18Z"/></g><g class="cls-7"><path class="cls-9" d="M45.6,144.35l1.89,16.83-28.35,3.17-1.89-16.83,6.15-.69,1,9.17,4.46-.5L27.94,147l6.14-.69,1,8.5,5.35-.6-1-9.18Z"/></g><g class="cls-7"><path class="cls-3" d="M49.31,113.92l-1.58,10-21.47,7.16,0,.17q4.74.38,7.21.76l12.7,2-1.07,6.74L16.9,136.29l1.57-9.94,21.2-7.16,0-.12q-4.3-.41-6.89-.81l-12.74-2,1.07-6.79Z"/></g><g class="cls-7"><path class="cls-9" d="M49.31,113.92l-1.58,10-21.47,7.16,0,.17q4.74.38,7.21.76l12.7,2-1.07,6.74L16.9,136.29l1.57-9.94,21.2-7.16,0-.12q-4.3-.41-6.89-.81l-12.74-2,1.07-6.79Z"/></g><g class="cls-7"><path class="cls-3" d="M56.7,98.12l-3.26,7L33.31,95.68l-3,6.31-5.7-2.68,9.16-19.58,5.71,2.68L36.58,88.7Z"/></g><g class="cls-7"><path class="cls-9" d="M56.7,98.12l-3.26,7L33.31,95.68l-3,6.31-5.7-2.68,9.16-19.58,5.71,2.68L36.58,88.7Z"/></g></svg>