<svg id="Layer_2" data-name="Layer 2" xmlns="http://www.w3.org/2000/svg" xmlns:xlink="http://www.w3.org/1999/xlink" viewBox="0 0 268 268"><defs><style>.cls-1,.cls-6{fill:#fcfafa;}.cls-2,.cls-5{fill:#fa033d;}.cls-2{fill-rule:evenodd;}.cls-3{clip-path:url(#clip-path);}.cls-4{fill:#020202;}.cls-6{font-size:39.96px;stroke:#fcfafa;stroke-miterlimit:10;font-family:OpenSans-Extrabold, Open Sans;font-weight:800;}</style><clipPath id="clip-path"><circle class="cls-1" cx="134" cy="134" r="89.5"/></clipPath></defs><path id="Background" class="cls-2" d="M134,0A134,134,0,1,0,268,134,134,134,0,0,0,134,0Z"/><g id="Buildings"><circle class="cls-1" cx="134" cy="134" r="89.5"/><g class="cls-3"><path class="cls-4" d="M165.23,225v-.41L99,225v-.4L37,225V122.09l20.2-.41v-2.85a10.1,10.1,0,0,1,2.37-3.73,5.33,5.33,0,0,1,3.69-1.29,5.28,5.28,0,0,1,.7,0H91s2.72,0,4.05,1.66a14.38,14.38,0,0,1,2,3.32v2.85h2V104.17h30.44V97.26l19.63-5.18,18.82,4.75v21.53h1.84l9-7.06,19.57.41,9.41,6.65H230V224.63l-64.77.41Z"/></g></g><path id="Stars" class="cls-5" d="M78,144l2.93,10.93L91.87,152l-8,8,8,8-10.94-2.93L78,176l-2.93-10.93L64.13,168l8-8-8-8,10.94,2.93Zm37.33,0,2.94,10.93L129.2,152l-8,8,8,8-10.93-2.93L115.33,176l-2.93-10.93L101.47,168l8-8-8-8,10.93,2.93Zm37.34,0,2.93,10.93L166.53,152l-8,8,8,8-10.93-2.93L152.67,176l-2.94-10.93L138.8,168l8-8-8-8,10.93,2.93ZM190,144l2.93,10.93L203.87,152l-8,8,8,8-10.94-2.93L190,176l-2.93-10.93L176.13,168l8-8-8-8,10.94,2.93Z"/><text id="Text" class="cls-6" transform="matrix(0.7, -0.71, 0.71, 0.7, 56.05, 75.67)">C</text><text class="cls-6" transform="translate(72.98 57.7) rotate(-29.68)">H</text><text class="cls-6" transform="translate(98.63 43.93) rotate(-17.3)">I</text><text class="cls-6" transform="matrix(0.99, -0.11, 0.11, 0.99, 110.34, 39.53)">C</text><text class="cls-6" transform="translate(134.8 36.43) rotate(8.96)">A</text><text class="cls-6" transform="translate(162.23 40.52) rotate(25.55)">G</text><text class="cls-6" transform="matrix(0.73, 0.68, -0.68, 0.73, 187.99, 52.45)">O</text><text class="cls-6" transform="translate(209.54 73.74) rotate(54.45)"> </text><text class="cls-6" transform="matrix(0.44, 0.9, -0.9, 0.44, 215.27, 80.63)">T</text><text class="cls-6" transform="translate(225.19 100.5) rotate(76.35)">E</text><text class="cls-6" transform="matrix(-0.03, 1, -1, -0.03, 230.96, 120.37)">N</text><text class="cls-6" transform="matrix(-0.33, 0.94, -0.94, -0.33, 229.85, 152.42)">A</text><text class="cls-6" transform="translate(221.06 178.85) rotate(127.09)">N</text><text class="cls-6" transform="translate(201.43 204.02) rotate(143.02)">T</text><text class="cls-6" transform="translate(183.78 217.48) rotate(155.98)">S</text><text class="cls-6" transform="matrix(-0.97, 0.26, -0.26, -0.97, 163.94, 225.9)"> </text><text class="cls-6" transform="translate(155.57 230.02) rotate(178.68)">M</text><text class="cls-6" transform="matrix(-0.95, -0.32, 0.32, -0.95, 118.1, 230.52)">O</text><text class="cls-6" transform="translate(89.21 220.6) rotate(-144.43)">V</text><text class="cls-6" transform="translate(67.93 205.17) rotate(-130.67)">E</text><text class="cls-6" transform="translate(53.25 190.26) rotate(-113.57)">M</text><text class="cls-6" transform="translate(39.33 155.74) rotate(-96.39)">E</text><text class="cls-6" transform="translate(36.09 135.29) rotate(-81.02)">N</text><text class="cls-6" transform="translate(41.56 103.81) rotate(-64.91)">T</text></svg>