<svg id="Layer_2" data-name="Layer 2" xmlns="http://www.w3.org/2000/svg" xmlns:xlink="http://www.w3.org/1999/xlink" viewBox="0 0 285 285"><defs><style>.cls-1,.cls-6{fill:#fcfafa;}.cls-2,.cls-5{fill:#fa033d;}.cls-2{fill-rule:evenodd;}.cls-3{clip-path:url(#clip-path);}.cls-4{fill:#020202;}.cls-6{font-size:39.96px;stroke:#fcfafa;stroke-miterlimit:10;font-family:OpenSans-Extrabold, Open Sans;font-weight:800;}</style><clipPath id="clip-path"><circle class="cls-1" cx="142.5" cy="142.5" r="89.5"/></clipPath></defs><path id="Background" class="cls-2" d="M142.5,8.5a134,134,0,1,0,134,134A134,134,0,0,0,142.5,8.5Z"/><g id="Buildings"><circle class="cls-1" cx="142.5" cy="142.5" r="89.5"/><g class="cls-3"><path class="cls-4" d="M173.73,233.54v-.41l-66.21.41v-.4l-62,.4V130.59l20.2-.41v-2.85a10.1,10.1,0,0,1,2.37-3.73,5.33,5.33,0,0,1,3.69-1.29,5.28,5.28,0,0,1,.7,0h27s2.72,0,4.05,1.66a14.38,14.38,0,0,1,2,3.32v2.85h2V112.67H138v-6.91l19.63-5.18,18.82,4.75v21.53h1.84l9-7.06,19.57.41,9.41,6.65H238.5V233.13l-64.77.41Z"/></g></g><path id="Stars" class="cls-5" d="M86.5,152.5l2.93,10.93,10.94-2.93-8,8,8,8-10.94-2.93L86.5,184.5l-2.93-10.93L72.63,176.5l8-8-8-8,10.94,2.93Zm37.33,0,2.94,10.93,10.93-2.93-8,8,8,8-10.93-2.93-2.94,10.93-2.93-10.93L110,176.5l8-8-8-8,10.93,2.93Zm37.34,0,2.93,10.93L175,160.5l-8,8,8,8-10.93-2.93-2.93,10.93-2.94-10.93L147.3,176.5l8-8-8-8,10.93,2.93Zm37.33,0,2.93,10.93,10.94-2.93-8,8,8,8-10.94-2.93L198.5,184.5l-2.93-10.93-10.94,2.93,8-8-8-8,10.94,2.93Z"/><text id="English" class="cls-6" transform="matrix(0.7, -0.71, 0.71, 0.7, 64.55, 84.17)">C</text><text class="cls-6" transform="translate(81.48 66.2) rotate(-29.68)">H</text><text class="cls-6" transform="translate(107.13 52.43) rotate(-17.3)">I</text><text class="cls-6" transform="matrix(0.99, -0.11, 0.11, 0.99, 118.84, 48.03)">C</text><text class="cls-6" transform="translate(143.3 44.93) rotate(8.96)">A</text><text class="cls-6" transform="translate(170.73 49.02) rotate(25.55)">G</text><text class="cls-6" transform="matrix(0.73, 0.68, -0.68, 0.73, 196.49, 60.95)">O</text><text class="cls-6" transform="translate(218.04 82.24) rotate(54.45)"> </text><text class="cls-6" transform="matrix(0.44, 0.9, -0.9, 0.44, 223.77, 89.13)">T</text><text class="cls-6" transform="translate(233.69 109) rotate(76.35)">E</text><text class="cls-6" transform="matrix(-0.03, 1, -1, -0.03, 239.46, 128.87)">N</text><text class="cls-6" transform="matrix(-0.33, 0.94, -0.94, -0.33, 238.35, 160.92)">A</text><text class="cls-6" transform="translate(229.56 187.35) rotate(127.09)">N</text><text class="cls-6" transform="translate(209.93 212.52) rotate(143.02)">T</text><text class="cls-6" transform="translate(192.28 225.98) rotate(155.98)">S</text><text class="cls-6" transform="matrix(-0.97, 0.26, -0.26, -0.97, 172.44, 234.4)"> </text><text class="cls-6" transform="translate(164.07 238.52) rotate(178.68)">M</text><text class="cls-6" transform="matrix(-0.95, -0.32, 0.32, -0.95, 126.6, 239.02)">O</text><text class="cls-6" transform="translate(97.71 229.1) rotate(-144.43)">V</text><text class="cls-6" transform="translate(76.43 213.67) rotate(-130.67)">E</text><text class="cls-6" transform="translate(61.75 198.76) rotate(-113.57)">M</text><text class="cls-6" transform="translate(47.83 164.24) rotate(-96.39)">E</text><text class="cls-6" transform="translate(44.59 143.79) rotate(-81.02)">N</text><text class="cls-6" transform="translate(50.06 112.31) rotate(-64.91)">T</text></svg>